<?xml version="1.0" encoding="UTF-8" standalone="no"?>
<svg width="179px" height="37px" viewBox="0 0 179 37" version="1.1" xmlns="http://www.w3.org/2000/svg" xmlns:xlink="http://www.w3.org/1999/xlink">
    <!-- Generator: Sketch 39.1 (31720) - http://www.bohemiancoding.com/sketch -->
    <title>color logo copy 3</title>
    <desc>Created with Sketch.</desc>
    <defs></defs>
    <g id="Page-1" stroke="none" stroke-width="1" fill="none" fill-rule="evenodd">
        <g id="color-logo-copy-3">
            <polygon id="Fill-1" fill="#FFFFFF" points="4.59692229 4.36376113 -0.00030983873 29.4547195 5.70459574 29.4547195 10.651171 3.20361281"></polygon>
            <path d="M29.1677531,16.9867407 C29.1677531,24.1857912 24.330396,29.4544051 17.5937274,29.4544051 C12.678136,29.4544051 9.39074709,26.1956145 9.39074709,21.3278648 C9.39074709,14.4927363 14.0669881,8.90343092 20.962449,8.90343092 C26.1545715,8.90343092 29.1677531,12.5222133 29.1677531,16.9867407 M15.2978224,21.2083915 C15.2978224,23.5027499 16.4062705,25.0299641 18.3876892,25.0299641 C21.5178349,25.0299641 23.2630016,20.405091 23.2630016,17.0244691 C23.2630016,15.2150779 22.5077697,13.2862134 20.2095409,13.2862134 C16.9190536,13.2862134 15.2559942,18.1531771 15.2978224,21.2083915" id="Fill-2" fill="#FFFFFF"></path>
            <path d="M47.1317378,29.0120396 L49.5895335,15.7387167 C50.0666852,13.2470702 50.3819461,11.0761152 50.6197473,9.34611082 L55.6933565,9.34611082 L55.2952137,12.6041154 L55.3749972,12.6041154 C57.1991727,10.0283661 59.6159148,8.90358812 62.1929984,8.90358812 C65.3641978,8.90358812 67.1473197,10.874897 67.1473197,14.2508029 C67.1473197,15.1374203 66.9885273,16.6261201 66.8281858,17.5905523 L64.689524,29.0120396 L58.9822946,29.0120396 L61.0024431,18.1132479 C61.1232802,17.4294206 61.1999653,16.6261201 61.1999653,15.9014204 C61.1999653,14.5321939 60.7251374,13.5677616 59.3014285,13.5677616 C57.4354247,13.5677616 55.2572585,15.9422928 54.4656205,20.2842029 L52.8389672,29.0120396 L47.1317378,29.0120396 Z" id="Fill-4" fill="#FFFFFF"></path>
            <path d="M117.000991,27.8855324 C114.740717,29.0519688 111.927382,29.4544051 109.789494,29.4544051 C104.239508,29.4544051 101.386668,26.2388449 101.386668,21.1297907 C101.386668,15.1372631 105.667865,8.90343092 112.681839,8.90343092 C116.603623,8.90343092 119.418507,11.1160444 119.418507,14.7749132 C119.418507,19.7998646 114.621429,21.6123998 106.857645,21.4111817 C106.857645,21.9747497 107.055168,22.8582231 107.447888,23.421005 C108.200022,24.4270957 109.511414,24.9513633 111.175248,24.9513633 C113.273631,24.9513633 115.057527,24.4671821 116.603623,23.703968 L117.000991,27.8855324 Z M114.067593,14.7749132 C114.067593,13.810481 113.273631,13.1258677 111.966111,13.1258677 C109.309244,13.1258677 107.805752,15.3384812 107.410707,17.1887449 C111.848373,17.2264733 114.067593,16.5858765 114.067593,14.8173577 L114.067593,14.7749132 Z" id="Fill-6" fill="#FFFFFF"></path>
            <path d="M116.82903,36.4722806 L120.492873,16.9470473 C120.931295,14.6141745 121.403024,11.1950382 121.644699,9.18521491 L126.753165,9.18521491 L126.397625,12.2011289 L126.475859,12.2011289 C128.064557,10.0702603 130.362786,8.90382392 132.699744,8.90382392 C136.901158,8.90382392 138.924405,12.3221742 138.924405,16.3441789 C138.924405,23.1808795 134.444911,29.4540121 127.708243,29.4540121 C126.119544,29.4540121 124.773295,29.0515758 124.100171,28.6499255 L124.021162,28.6499255 L122.697376,35.1478565 L116.82903,36.4722806 Z M124.891034,24.1052253 C125.527753,24.7088797 126.397625,25.0720156 127.508397,25.0720156 C130.561083,25.0720156 132.939869,20.6452166 132.939869,16.7859156 C132.939869,15.217829 132.3047,13.5679974 130.443344,13.5679974 C128.301584,13.5679974 126.31939,16.0227015 125.607536,19.8812165 L124.891034,24.1052253 Z" id="Fill-8" fill="#FFFFFF"></path>
            <path d="M159.335186,16.9867407 C159.335186,24.1857912 154.502476,29.4544051 147.762709,29.4544051 C142.849442,29.4544051 139.558954,26.1956145 139.558954,21.3278648 C139.558954,14.4927363 144.233646,8.90343092 151.131431,8.90343092 C156.323553,8.90343092 159.335186,12.5222133 159.335186,16.9867407 M145.462931,21.2083915 C145.462931,23.5027499 146.573703,25.0299641 148.555122,25.0299641 C151.686042,25.0299641 153.428885,20.406663 153.428885,17.0244691 C153.428885,15.218222 152.677526,13.2862134 150.381621,13.2862134 C147.086486,13.2862134 145.423427,18.1531771 145.462931,21.2083915" id="Fill-10" fill="#FFFFFF"></path>
            <path d="M170.19604,3.99858165 L169.205331,9.34579641 L173.325411,9.34579641 L172.494269,13.7285789 L168.374188,13.7285789 L167.064345,20.4065058 C166.907102,21.1705059 166.747535,22.215897 166.747535,22.8989383 C166.747535,23.8633705 167.144129,24.5479838 168.374188,24.5479838 C168.887746,24.5479838 169.443132,24.5479838 169.959013,24.4662389 L169.28279,29.0117252 C168.571711,29.2939022 167.144129,29.4542479 165.917167,29.4542479 C162.508941,29.4542479 160.882288,27.6448567 160.882288,25.1909386 C160.882288,24.1054611 161.003125,23.06007 161.280431,21.5297118 L162.786247,13.7285789 L160.328451,13.7285789 L161.120864,9.34579641 L163.618164,9.34579641 L164.330018,5.64684115 L170.19604,3.99858165 Z" id="Fill-12" fill="#FFFFFF"></path>
            <path d="M46.0246066,24.226585 C45.628013,26.1185071 45.3297932,27.9263263 45.2988094,29.0118038 L39.8704348,29.0118038 L39.9269804,27.0420669 L39.8069179,27.0420669 C38.2081501,28.6093675 36.0501233,29.4551125 33.7542184,29.4551125 C29.8270125,29.4551125 28.0973378,26.5578857 28.7541959,23.4209264 C29.8246887,18.3142302 34.8564696,15.8618842 41.7039055,15.8996126 L41.7643241,15.6197936 C41.9827604,14.5728305 41.739537,13.0857027 38.7666344,13.0857027 C36.7844411,13.0857027 34.5427579,13.768744 33.1043316,14.5728305 L32.8200546,10.6317847 C34.3266454,9.86778456 37.1841331,8.90335232 40.7139708,8.90335232 C47.1725591,8.90335232 48.4243075,12.7650113 47.4576107,17.3875264 L46.0246066,24.226585 Z M41.103593,19.4688765 C37.6488912,19.426432 34.7867559,20.2603869 34.2429889,22.8518564 C33.8866744,24.5661406 34.8371047,25.4024535 36.3103879,25.4024535 C37.9548569,25.4024535 39.5280631,24.3036138 40.2461143,22.9406753 C40.4064558,22.5893296 40.5319405,22.1923954 40.6132732,21.7986052 L41.103593,19.4688765 Z" id="Fill-14" fill="#FFFFFF"></path>
            <path d="M66.2370909,27.8427736 L73.3757752,8.93534286 C73.3757752,8.93534286 76.8893464,7.99291885 80.6027636,7.43563894 C76.945892,15.1817512 74.738291,22.3737275 74.738291,23.4835713 C74.738291,24.5934151 75.0543266,26.6378228 79.7615514,26.6378228 C85.3487183,26.6378228 92.438603,23.1644519 92.438603,17.8565376 C92.438603,24.9486909 84.9722642,29.4352265 76.7475952,29.4352265 C70.6151122,29.4352265 66.2370909,27.8427736 66.2370909,27.8427736" id="Fill-16" fill="#A5CD39"></path>
            <path d="M92.4388354,17.856459 C92.4388354,24.9493983 84.9724966,29.4359339 76.7478276,29.4359339 C70.61457,29.4359339 66.3054878,27.842695 66.3054878,27.842695 C66.3054878,27.842695 69.9964417,31.3655844 79.411666,31.3655844 C88.8253412,31.3655844 99.8548253,25.4312214 99.8548253,16.8425082 C99.8548253,5.01779867 83.087128,7.19897182 83.087128,7.19897182 L80.5208887,12.6853101 C80.5208887,12.6853101 82.9298848,12.4047051 84.9252462,12.4047051 C87.7308359,12.4047051 92.4388354,13.6599604 92.4388354,17.856459" id="Fill-18" fill="#FFFFFF"></path>
            <path d="M177.283369,0.786008344 C178.226053,0.786008344 178.957272,1.52800022 178.957272,2.45470406 C178.957272,3.4002721 178.226053,4.13283187 177.272524,4.13283187 C176.330615,4.13283187 175.578481,3.4002721 175.578481,2.45470406 C175.578481,1.52800022 176.330615,0.786008344 177.272524,0.786008344 L177.283369,0.786008344 Z M177.263229,1.12163391 C176.542079,1.12163391 175.999087,1.72214428 175.999087,2.45470406 C175.999087,3.19748194 176.542079,3.78777421 177.283369,3.78777421 C178.006067,3.79799232 178.537441,3.19748194 178.537441,2.45470406 C178.537441,1.72214428 178.006067,1.12163391 177.272524,1.12163391 L177.263229,1.12163391 Z M177.013034,3.31931324 L176.631933,3.31931324 L176.631933,1.66083563 C176.78143,1.63018131 176.99212,1.59952698 177.263229,1.59952698 C177.573842,1.59952698 177.714819,1.65140353 177.834107,1.73236239 C177.925509,1.80310314 177.995223,1.93593855 177.995223,2.08763816 C177.995223,2.28178222 177.854246,2.42404973 177.655175,2.48535838 L177.655175,2.5057946 C177.814742,2.55609914 177.906144,2.68814854 177.954169,2.91294692 C178.006067,3.16682762 178.034728,3.2690087 178.075781,3.31931324 L177.66447,3.31931324 C177.614896,3.25800459 177.583912,3.11573708 177.534338,2.92237902 C177.504129,2.73923908 177.404206,2.65828022 177.19429,2.65828022 L177.013034,2.65828022 L177.013034,3.31931324 Z M177.022329,2.3831773 L177.202811,2.3831773 C177.414275,2.3831773 177.583912,2.31243655 177.583912,2.1387287 C177.583912,1.98624309 177.473919,1.88484801 177.23302,1.88484801 C177.133097,1.88484801 177.062609,1.89506612 177.022329,1.90528423 L177.022329,2.3831773 Z" id="Fill-20" fill="#FFFFFF"></path>
        </g>
    </g>
</svg>